<svg width="24" height="22" viewBox="0 0 24 22" fill="none" xmlns="http://www.w3.org/2000/svg">
<path d="M7 5C7 4.44772 7.44771 4 8 4C8.55228 4 9 4.44772 9 5V6H10C10.5523 6 11 6.44771 11 7C11 7.55228 10.5523 8 10 8H9V9C9 9.55228 8.55228 10 8 10C7.44771 10 7 9.55228 7 9V8H6C5.44771 8 5 7.55229 5 7C5 6.44771 5.44771 6 6 6H7V5Z" fill="#0F0F0F"/>
<path d="M17 5C17 5.55229 16.5523 6 16 6C15.4477 6 15 5.55229 15 5C15 4.44772 15.4477 4 16 4C16.5523 4 17 4.44772 17 5Z" fill="#0F0F0F"/>
<path d="M16 10C16.5523 10 17 9.55229 17 9C17 8.44771 16.5523 8 16 8C15.4477 8 15 8.44771 15 9C15 9.55229 15.4477 10 16 10Z" fill="#0F0F0F"/>
<path d="M19 7C19 7.55229 18.5523 8 18 8C17.4477 8 17 7.55229 17 7C17 6.44771 17.4477 6 18 6C18.5523 6 19 6.44771 19 7Z" fill="#0F0F0F"/>
<path d="M14 8C14.5523 8 15 7.55229 15 7C15 6.44771 14.5523 6 14 6C13.4477 6 13 6.44771 13 7C13 7.55229 13.4477 8 14 8Z" fill="#0F0F0F"/>
<path fill-rule="evenodd" clip-rule="evenodd" d="M2.17856 2.46413C2.7668 0.728173 4.47823 0 5.99997 0H18C19.5217 0 21.2331 0.728165 21.8214 2.46411C22.5987 4.75813 22.9381 8.03747 23.0762 11.1306C23.2157 14.2519 23.1537 17.2926 23.0858 19.165C23.0275 20.7748 21.6987 22 20.1211 22H18.5615C17.1849 22 15.985 21.0631 15.6511 19.7276L14.4086 14.7575C14.2973 14.3123 13.8973 14 13.4384 14H10.5615C10.1026 14 9.70266 14.3123 9.59137 14.7575L8.34884 19.7276C8.01496 21.0631 6.81501 22 5.43841 22H3.87886C2.30118 22 0.972467 20.7748 0.914126 19.165C0.846263 17.2926 0.784238 14.2519 0.923689 11.1306C1.06188 8.03748 1.40122 4.75815 2.17856 2.46413ZM5.99997 2C5.00364 2 4.29265 2.45709 4.07276 3.10599C3.39318 5.11152 3.05905 8.14533 2.9217 11.2198C2.7856 14.2661 2.84594 17.2475 2.91281 19.0926C2.93098 19.5937 3.34429 20 3.87886 20H5.43841C5.89728 20 6.29726 19.6877 6.40855 19.2425L7.65109 14.2724C7.98496 12.9369 9.18491 12 10.5615 12H13.4384C14.815 12 16.015 12.9369 16.3488 14.2724L17.5914 19.2425C17.7027 19.6877 18.1026 20 18.5615 20H20.1211C20.6556 20 21.0689 19.5937 21.0871 19.0926C21.154 17.2475 21.2143 14.2661 21.0782 11.2198C20.9409 8.14532 20.6068 5.11151 19.9272 3.10598C19.7073 2.45708 18.9963 2 18 2H5.99997Z" fill="#0F0F0F"/>
</svg>
