<svg width="20" height="22" viewBox="0 0 20 22" fill="none" xmlns="http://www.w3.org/2000/svg">
<path fill-rule="evenodd" clip-rule="evenodd" d="M9.51436 0.125843C9.81638 -0.0419476 10.1836 -0.0419476 10.4856 0.125843L19.4845 5.12522C19.4921 5.12942 19.4996 5.13372 19.5071 5.13813C19.8125 5.31781 20 5.64568 20 6V16C20 16.3632 19.8031 16.6978 19.4856 16.8742L10.4856 21.8742C10.1791 22.0445 9.8059 22.0416 9.50218 21.8673L0.514357 16.874C0.196892 16.6977 0 16.3631 0 15.9999V6C0 5.64568 0.187494 5.3177 0.492872 5.13802L0.507297 5.13784L0.514357 5.12584L9.51436 0.125843ZM10.0001 9.85599L3.05923 5.99995L10 2.14396L16.9409 6L10.0001 9.85599ZM2 7.69951V15.4115L9 19.3004V11.5884L2 7.69951ZM11 11.5884V19.3005L18 15.4116V7.69951L11 11.5884Z" fill="#0F0F0F"/>
</svg>