<svg width="22" height="22" viewBox="0 0 22 22" fill="none" xmlns="http://www.w3.org/2000/svg">
<path fill-rule="evenodd" clip-rule="evenodd" d="M0 3C0 1.34315 1.34315 0 3 0H6.76393C7.90025 0 8.93904 0.642006 9.44721 1.65836L10.3416 3.44721C10.511 3.786 10.8573 4 11.2361 4H19C20.6569 4 22 5.34315 22 7V19C22 20.6569 20.6569 22 19 22H3C1.34315 22 0 20.6569 0 19V3ZM3 2C2.44772 2 2 2.44772 2 3V19C2 19.5523 2.44772 20 3 20H19C19.5523 20 20 19.5523 20 19V7C20 6.44772 19.5523 6 19 6H11.2361C10.0998 6 9.06096 5.35799 8.55279 4.34164L7.65836 2.55279C7.48897 2.214 7.1427 2 6.76393 2H3Z" fill="#0F0F0F"/>
</svg>
