<svg width="21" height="23" viewBox="0 0 21 23" fill="none" xmlns="http://www.w3.org/2000/svg">
<path d="M3.0744 2.9938C3.13263 1.96371 3.37869 1.51577 4.08432 1.15606C4.84357 0.768899 6.04106 0.949072 7.45014 1.66261C8.05706 1.97009 8.11886 1.97635 9.18253 1.83998C10.5963 1.65865 12.4164 1.65929 13.7213 1.84164C14.7081 1.97954 14.7729 1.97265 15.3813 1.66453C17.3814 0.651679 18.9605 0.71795 19.5323 1.8387C19.8177 2.39812 19.8707 3.84971 19.6494 5.04695C19.5267 5.71069 19.5397 5.79356 19.8353 6.22912C21.915 9.29385 20.4165 14.2616 16.8528 16.1155C16.5801 16.2574 16.3503 16.3452 16.163 16.4167C15.5879 16.6363 15.4133 16.703 15.6247 17.7138C15.7265 18.2 15.8491 19.4088 15.8973 20.4002C15.9844 22.1922 15.9831 22.2047 15.6688 22.5703C15.241 23.0676 14.6244 23.076 14.2066 22.5902C13.9341 22.2734 13.9075 22.1238 13.9075 20.9015C13.9075 19.0952 13.7095 17.8946 13.2417 16.8658C12.6854 15.6415 13.0978 15.185 14.37 14.9114C16.1383 14.531 17.5194 13.4397 18.2892 11.8146C19.0211 10.2698 19.1314 8.13501 17.8082 6.83668C17.4319 6.3895 17.4057 5.98446 17.6744 4.76309C17.7748 4.3066 17.859 3.71768 17.8615 3.45425C17.8653 3.03823 17.8274 2.97541 17.5719 2.97541C17.4102 2.97541 16.7924 3.21062 16.1992 3.49805L15.2524 3.95695C15.1663 3.99866 15.07 4.0147 14.975 4.0038C12.5675 3.72746 10.2799 3.72319 7.86062 4.00488C7.76526 4.01598 7.66853 3.99994 7.58215 3.95802L6.63585 3.49882C6.04259 3.21087 5.42482 2.97541 5.26317 2.97541C4.88941 2.97541 4.88379 3.25135 5.22447 4.89078C5.43258 5.89203 5.57262 6.11513 4.97101 6.91572C4.06925 8.11576 3.844 9.60592 4.32757 11.1716C4.93704 13.1446 6.4295 14.4775 8.52773 14.9222C9.79261 15.1903 10.1232 15.5401 9.64018 16.9905C9.26004 18.1319 9.0196 18.4261 8.46707 18.4261C7.72365 18.4261 7.25796 17.7821 7.51424 17.1082C7.62712 16.8112 7.59354 16.7795 6.89711 16.5255C4.77117 15.7504 3.14514 14.0131 2.40172 11.7223C1.82711 9.95184 2.07994 7.64739 3.00175 6.25453C3.31561 5.78028 3.32047 5.74006 3.174 4.83217C3.09113 4.31822 3.04631 3.49103 3.0744 2.9938Z" fill="#0F0F0F"/>
<path d="M2.33203 15.9454C2.02568 15.4859 1.40481 15.3617 0.945284 15.6681C0.485755 15.9744 0.361581 16.5953 0.667934 17.0548C0.894104 17.3941 1.16467 17.6728 1.39444 17.9025C1.4368 17.9449 1.47796 17.9858 1.51815 18.0257C1.71062 18.2169 1.88056 18.3857 2.05124 18.5861C2.42875 19.0292 2.80536 19.626 3.0194 20.6962C3.11474 21.1729 3.45739 21.4297 3.64725 21.5419C3.85315 21.6635 4.07812 21.7352 4.26325 21.7819C4.64196 21.8774 5.10169 21.927 5.53799 21.9559C6.01695 21.9877 6.53592 21.998 6.99999 22.0008C7.00033 22.5527 7.44791 23.0001 7.99998 23.0001C8.55227 23.0001 8.99998 22.5524 8.99998 22.0001V21.0001C8.99998 20.4478 8.55227 20.0001 7.99998 20.0001C7.90571 20.0001 7.80372 20.0004 7.69569 20.0008C7.10883 20.0026 6.34388 20.0049 5.67018 19.9603C5.34531 19.9388 5.07825 19.9083 4.88241 19.871C4.58083 18.6871 4.09362 17.8994 3.57373 17.2891C3.34391 17.0194 3.10593 16.7834 2.91236 16.5914C2.87612 16.5555 2.84144 16.5211 2.80865 16.4883C2.5853 16.265 2.4392 16.1062 2.33203 15.9454Z" fill="#0F0F0F"/>
</svg>
