<svg width="22" height="22" viewBox="0 0 22 22" fill="none" xmlns="http://www.w3.org/2000/svg">
<path d="M5.5 7C6.32843 7 7 6.32843 7 5.5C7 4.67157 6.32843 4 5.5 4C4.67157 4 4 4.67157 4 5.5C4 6.32843 4.67157 7 5.5 7Z" fill="#0F0F0F"/>
<path d="M4 9C4 8.44772 4.44772 8 5 8H6C6.55228 8 7 8.44771 7 9V17C7 17.5523 6.55228 18 6 18H5C4.44772 18 4 17.5523 4 17V9Z" fill="#0F0F0F"/>
<path d="M10 18H11C11.5523 18 12 17.5523 12 17V12.5C12 11 15 10 15 12V17.0004C15 17.5527 15.4477 18 16 18H17C17.5523 18 18 17.5523 18 17V11C18 9 16.5 8 14.5 8C12.5 8 12 9.5 12 9.5V9C12 8.44771 11.5523 8 11 8H10C9.44771 8 9 8.44772 9 9V17C9 17.5523 9.44772 18 10 18Z" fill="#0F0F0F"/>
<path fill-rule="evenodd" clip-rule="evenodd" d="M19 0C20.6569 0 22 1.34315 22 3V19C22 20.6569 20.6569 22 19 22H3C1.34315 22 0 20.6569 0 19V3C0 1.34315 1.34315 0 3 0H19ZM19 2C19.5523 2 20 2.44772 20 3V19C20 19.5523 19.5523 20 19 20H3C2.44772 20 2 19.5523 2 19V3C2 2.44772 2.44772 2 3 2H19Z" fill="#0F0F0F"/>
</svg>

